<svg width="321" height="315" viewBox="0 0 321 315" fill="none" xmlns="http://www.w3.org/2000/svg">
<g clip-path="url(#clip0_1_21)">
<path d="M146.024 274.01C206.139 275.387 234.261 202.195 184.803 165.963C170.529 155.514 153.974 177.346 168.236 187.75C194.411 206.93 183.213 247.704 148.939 246.941C131.347 246.532 128.202 273.623 146.024 274.033V274.01Z" fill="#E7C549" fill-opacity="0.03"/>
<path d="M148.87 196.299C117.004 177.688 120.736 135.764 156.093 123.869C172.914 118.178 161.854 93.2718 145.091 98.8266C91.2205 116.96 83.0409 189.275 132.315 218.029C147.453 226.873 164.135 205.155 148.87 196.242V196.299Z" fill="#E7C549" fill-opacity="0.03"/>
<path d="M228.132 157.176C248.408 140.898 255.229 114.956 246.899 90.7448C241.139 74.1257 215.932 85.0533 221.611 101.615C225.897 114.057 221.208 127.637 211.07 135.764C197.245 146.84 214.342 168.251 228.132 157.176Z" fill="#E7C549" fill-opacity="0.03"/>
<path d="M251.692 241.443C251.45 223.618 262.129 207.01 280.436 202.924C297.636 199.099 293.581 172.19 276.208 176.003C246.784 182.56 223.846 208.069 224.261 238.609C224.503 255.9 251.911 259.041 251.692 241.489V241.443Z" fill="#E7C549" fill-opacity="0.03"/>
<path d="M309.952 154.58C322.21 135.514 324.618 112.862 315.424 91.9741C308.327 75.8786 283.051 86.738 290.136 102.845C295.228 114.41 294.825 127.443 287.913 138.246C278.454 152.975 300.447 169.424 309.975 154.614L309.952 154.58Z" fill="#E7C549" fill-opacity="0.03"/>
<path d="M272.751 33.3975C253.097 15.606 229.33 4.73526 203.167 0.227615C185.701 -2.77748 182.798 24.3253 200.24 27.3304C221.726 31.0298 240.183 40.694 256.185 55.1958C269.272 67.0454 285.712 45.1447 272.751 33.3975Z" fill="#E7C549" fill-opacity="0.03"/>
<path d="M186.854 51.0183C178.294 38.0759 164.457 30.1079 149.169 27.5353C141.819 26.306 134.757 32.6463 133.997 39.6354C133.156 47.3416 138.882 53.3974 146.243 54.6267C154.584 56.0268 160.667 61.0239 165.183 67.8765C169.25 74.046 179.066 74.4103 184.538 70.153C190.84 65.2584 190.92 57.2106 186.842 51.0183H186.854Z" fill="#E7C549" fill-opacity="0.03"/>
<path d="M82.9833 120.978C84.4234 113.329 88.4441 107.113 93.7897 101.547C98.9048 96.2086 96.5085 86.5217 91.0362 82.4694C84.504 77.6316 76.8773 79.8285 71.7391 85.1899C62.9604 94.2962 57.9143 105.793 55.6102 118.087C54.2508 125.326 60.8751 132.338 67.8567 133.078C75.7483 133.92 81.6815 128.229 83.0294 120.978H82.9833Z" fill="#E7C549" fill-opacity="0.03"/>
<path d="M81.693 206.657C74.2506 202.81 71.1516 192.804 73.4211 183.698C75.1953 176.538 67.8566 169.412 61.1631 168.706C52.9489 167.83 47.7761 173.635 45.9904 180.807C40.8061 201.717 53.0756 222.434 71.5893 232.03C78.2022 235.445 86.9464 230.675 89.4694 224.346C92.4417 216.879 88.3173 210.106 81.693 206.68V206.657Z" fill="#E7C549" fill-opacity="0.03"/>
<path d="M29.4814 175.673C27.1648 170.199 26.8391 164.101 28.5597 158.416C30.8638 151.427 28.0067 143.562 20.7833 140.75C14.1589 138.177 5.23038 141.41 2.90321 148.433C-1.37565 160.869 -0.916872 174.419 4.19352 186.544C11.0253 202.764 36.3016 191.882 29.539 175.673H29.4814Z" fill="#E7C549" fill-opacity="0.03"/>
<path d="M216.185 314.932C232.602 313.429 245.943 302.98 253.166 288.751C256.507 282.172 251.888 273.623 245.39 271.096C237.936 268.193 230.862 272.166 227.51 278.779C228.167 277.493 227.372 279.075 227.072 279.485C226.371 280.524 225.601 281.517 224.768 282.456C223.178 284.209 225.92 281.546 224.065 283.105C223.117 283.927 222.117 284.687 221.07 285.382C218.273 286.933 215.158 287.84 211.957 288.034C204.538 288.717 199.353 296.639 200.436 303.583C201.646 311.232 208.743 315.637 216.185 314.966V314.932Z" fill="#E7C549" fill-opacity="0.03"/>
<path d="M315.977 250.698L318.673 243.948C321.311 237.311 317.947 228.672 310.896 226.281C303.846 223.891 295.85 226.862 293.016 233.965L290.32 240.692C287.682 247.317 291.046 255.968 298.097 258.347C305.148 260.726 313.143 257.778 315.977 250.664V250.698Z" fill="#E7C549" fill-opacity="0.03"/>
<path d="M145.794 283.822L105.472 276.241C88.0523 272.974 85.1837 300.077 102.545 303.332L142.868 310.914C160.287 314.18 163.155 287.078 145.794 283.822Z" fill="#E7C549" fill-opacity="0.03"/>
<path d="M54.9305 63.2777C58.2244 56.0767 63.0556 49.6647 69.0929 44.4816C75.1301 39.2985 82.2306 35.4669 89.9072 33.2496C106.785 28.6167 102.799 1.62776 85.6791 6.32892C60.1609 13.3408 40.3799 29.3794 29.2855 53.2949C21.8777 69.231 47.5573 79.1683 54.9305 63.2777Z" fill="#E7C549" fill-opacity="0.03"/>
<path d="M63.9051 251.21L50.2185 245.883C43.5135 243.276 34.7578 246.6 32.35 253.566C29.9422 260.533 32.9375 268.432 40.1264 271.233L53.8015 276.56C60.518 279.166 69.2622 275.843 71.6815 268.876C74.1008 261.91 71.0939 254.01 63.9051 251.21Z" fill="#E7C549" fill-opacity="0.03"/>
</g>
<defs>
<clipPath id="clip0_1_21">
<rect width="321" height="315" fill="white"/>
</clipPath>
</defs>
</svg>
