<svg width="90" height="90" viewBox="0 0 90 90" fill="none" xmlns="http://www.w3.org/2000/svg">
<path d="M45 5.625C43.5828 5.625 42.1985 6.14136 41.1328 7.20703L33.2227 15.2051C32.7942 15.4358 32.4316 15.7654 32.168 16.1719L7.20703 41.1328C5.07568 43.2532 5.07568 46.7358 7.20703 48.8672L41.1328 82.793C43.2642 84.9133 46.7358 84.9133 48.8672 82.793L82.793 48.8672C84.9243 46.7468 84.9243 43.2642 82.793 41.1328L48.8672 7.20703C47.8015 6.14136 46.4172 5.625 45 5.625ZM45 11.3379L78.6621 45L45 78.6621L11.3379 45L34.6289 21.709L39.5508 26.6309C39.4189 27.1033 39.375 27.6086 39.375 28.125C39.375 30.2014 40.5066 31.9812 42.1875 32.959V57.041C40.5066 58.0188 39.375 59.7986 39.375 61.875C39.375 64.9841 41.8909 67.5 45 67.5C48.1091 67.5 50.625 64.9841 50.625 61.875C50.625 59.7986 49.4934 58.0188 47.8125 57.041V34.9805L56.4258 43.5938C56.3049 44.0442 56.25 44.5166 56.25 45C56.25 48.1091 58.7659 50.625 61.875 50.625C64.9841 50.625 67.5 48.1091 67.5 45C67.5 41.8909 64.9841 39.375 61.875 39.375C61.3916 39.375 60.9192 39.4299 60.4688 39.5508L50.4492 29.5312C50.5701 29.0808 50.625 28.6084 50.625 28.125C50.625 25.0159 48.1091 22.5 45 22.5C44.4836 22.5 43.9783 22.5439 43.5059 22.6758L38.584 17.7539L45 11.3379Z" fill="black"/>
</svg>
