<svg width="90" height="90" viewBox="0 0 90 90" fill="none" xmlns="http://www.w3.org/2000/svg">
<path d="M12.0024 7.19995C9.37267 7.19995 7.20001 9.37261 7.20001 12.0023V77.9976C7.20001 80.6273 9.37267 82.8 12.0024 82.8H77.9977C80.6274 82.8 82.8 80.6343 82.8 77.9976V12.0023C82.8 9.37261 80.6344 7.19995 77.9977 7.19995H12.0024ZM12.0024 10.8H77.9977C78.6656 10.8 79.2 11.3343 79.2 12.0023V77.9976C79.2 78.6656 78.6656 79.2 77.9977 79.2H12.0024C11.3344 79.2 10.8 78.6656 10.8 77.9976V12.0023C10.8 11.3343 11.3344 10.8 12.0024 10.8ZM41.4 41.4V64.0336C41.4 67.507 40.0852 68.4 37.8 68.4C35.4094 68.4 33.75 66.9093 32.6531 64.9757L27 68.4C28.6383 71.8664 32.6531 75.6 38.2219 75.6C44.3813 75.6 48.6 72.3234 48.6 65.1304V41.4H41.4ZM63.8156 41.4C57.6844 41.4 53.7539 45.3234 53.7539 50.4773C53.7539 56.0671 57.0516 58.7109 62.0086 60.8203L63.7242 61.5586C66.8531 62.9296 68.4 63.7664 68.4 66.1218C68.4 68.0836 66.9094 69.5039 64.0617 69.5039C60.6727 69.5039 59.0695 67.2046 57.6 64.8L52.2 68.4C54.218 72.3867 57.8391 75.6 64.2164 75.6C70.7414 75.6 75.6 72.2109 75.6 66.0304C75.6 60.2929 72.3094 57.7406 66.4664 55.2375L64.7508 54.5062C61.8047 53.2265 60.525 52.3968 60.525 50.3367C60.525 48.6703 61.8047 47.3906 63.8156 47.3906C65.7914 47.3906 67.057 48.2273 68.2313 50.3367L73.5821 46.9054C71.325 42.9187 68.182 41.4 63.8156 41.4Z" fill="black"/>
</svg>
