<svg width="90" height="90" viewBox="0 0 90 90" fill="none" xmlns="http://www.w3.org/2000/svg">
<g clip-path="url(#clip0_101_20)">
<path d="M56.1024 14.3999C55.2586 14.3788 54.5203 14.7022 54.1406 15.6374C53.4938 17.2054 55.1039 18.7382 55.6805 19.5397C56.0813 20.0952 56.6016 20.721 56.8899 21.3468C57.0797 21.7616 57.1078 22.1765 57.2695 22.6124C57.6703 23.6882 58.3102 24.9116 58.8235 25.91C59.0836 26.4163 59.3719 26.9436 59.7024 27.3936C59.9063 27.6679 60.2508 27.7944 60.307 28.2163C59.9695 28.6944 59.9485 29.4327 59.7586 30.0374C58.9008 32.7444 59.2242 36.1124 60.4688 38.1093C60.8555 38.728 61.7625 40.0429 63 39.5436C64.0828 39.1007 63.8438 37.7296 64.1531 36.5132C64.2234 36.246 64.1813 36.0421 64.3219 35.8593V35.9155C64.6453 36.5765 64.9758 37.2374 65.3063 37.8913C66.0445 39.0725 67.3453 40.303 68.4422 41.1397C69.0117 41.5686 69.4617 42.3139 70.2 42.5671V42.5108H70.1438C70.0031 42.2858 69.7781 42.1944 69.5953 42.0186C69.1664 41.5968 68.6883 41.0694 68.3367 40.5843C67.3313 39.2272 66.4453 37.7366 65.6438 36.1897C65.257 35.4515 64.9195 34.6358 64.5961 33.8835C64.4695 33.5882 64.4695 33.1522 64.2094 32.9975C63.8508 33.553 63.3305 33.996 63.0563 34.6499C62.6203 35.6905 62.557 36.9632 62.3953 38.278C62.2969 38.3132 62.3391 38.285 62.2899 38.3343C61.5235 38.1444 61.2492 37.3569 60.968 36.6819C60.2508 34.9733 60.1102 32.2171 60.75 30.2554C60.9117 29.7421 61.65 28.1389 61.3547 27.6679C61.2141 27.1968 60.736 26.9296 60.4758 26.571C60.1453 26.128 59.8219 25.5444 59.5969 25.0311C59.0063 23.6952 58.4508 22.1483 57.825 20.7983C57.5297 20.1515 57.0305 19.5046 56.6156 18.928C56.1586 18.2952 55.6524 17.8311 55.2938 17.0577C55.1742 16.7905 54.9985 16.3546 55.1883 16.0733C55.2445 15.8835 55.3289 15.8061 55.5188 15.7429C55.8352 15.4968 56.7211 15.8202 57.0586 15.9608C57.9375 16.3265 58.6758 16.678 59.4211 17.1702C59.7797 17.4093 60.1383 17.8663 60.5742 17.9999H61.0664C61.8469 18.1757 62.7117 18.0491 63.4289 18.2741C64.7086 18.6608 65.8547 19.2655 66.8883 19.9194C70.0594 21.9163 72.6539 24.764 74.4188 28.16C74.707 28.7085 74.8336 29.2358 75.0867 29.8124C75.586 30.9796 76.2258 32.1889 76.732 33.328C77.2313 34.4741 77.7234 35.6202 78.4336 36.5694C78.8063 37.0686 80.2547 37.3429 80.9086 37.6171C81.3656 37.8139 82.125 38.0179 82.5539 38.278C83.3906 38.7772 84.1922 39.3749 84.9727 39.9304C85.3664 40.2046 86.5617 40.8022 86.625 41.3014C84.6914 41.2522 83.2149 41.428 81.9563 41.9624C81.5977 42.1171 81.0211 42.1171 80.9649 42.5671C81.1547 42.771 81.1899 43.0804 81.3445 43.3335C81.6469 43.8186 82.1531 44.4725 82.6102 44.8171C83.1094 45.1897 83.6156 45.5905 84.15 45.921C85.0922 46.4905 86.1469 46.821 87.061 47.3975C87.5953 47.7421 88.1367 48.171 88.657 48.5507C88.9172 48.7475 89.086 49.0429 89.4235 49.1624V49.1061C89.2477 48.8811 89.2055 48.5718 89.0438 48.3397L88.3195 47.6155C87.6235 46.6944 86.7375 45.8788 85.7953 45.2038C85.043 44.6624 83.3625 43.9311 83.0531 43.0593L82.9969 43.003C83.5242 42.9468 84.15 42.7499 84.6422 42.6163C85.4719 42.3983 86.2031 42.4546 87.0539 42.2366C87.4406 42.1241 87.8274 42.0116 88.2141 41.9061V41.6811C87.7852 41.2452 87.4758 40.6546 87.0047 40.2538C85.7742 39.2061 84.4313 38.1585 83.0461 37.2866C82.2797 36.8014 81.3305 36.485 80.5219 36.0772C80.2477 35.9366 79.7695 35.8663 79.5867 35.6343C79.1578 35.0929 78.9258 34.4038 78.5953 33.771C77.9063 32.4421 77.2313 30.9936 76.6195 29.5944C76.2047 28.6452 75.9305 27.703 75.4102 26.8452C72.9141 22.746 70.2281 20.2639 66.0656 17.8311C65.1797 17.3108 64.118 17.114 62.993 16.8468C62.3813 16.8046 61.7836 16.7694 61.1719 16.7343C60.8063 16.5796 60.4195 16.1296 60.075 15.9046C59.2102 15.3632 57.5086 14.421 56.1024 14.3999ZM62.0578 20.3624C61.657 20.3554 61.3688 20.4116 61.0664 20.4749V20.5311H61.1227C61.3125 20.9249 61.657 21.178 61.8961 21.5155C62.0789 21.9022 62.2547 22.289 62.4375 22.6757L62.4938 22.6194C62.8313 22.3804 62.993 21.9936 62.993 21.41C62.8524 21.2694 62.8313 21.0866 62.7188 20.9179C62.557 20.6858 62.2547 20.5593 62.0578 20.3624ZM3.36095 43.1929C2.81954 43.2139 2.22892 43.3194 1.58908 43.5233C0.520326 43.8468 -0.00701904 44.4866 -0.00701904 45.7874V59.3999H3.60001V46.1179L8.59923 57.4733C9.21798 58.8866 10.0617 59.3929 11.7141 59.3929C13.3735 59.3929 14.182 58.8866 14.8008 57.4733L19.8 46.4061V59.3999H23.4V45.7874C23.4 44.4866 22.8797 43.8468 21.8039 43.5233C19.2445 42.7147 17.5219 43.4108 16.7485 45.1616L11.6156 56.7069L6.65158 45.1616C6.08908 43.8468 4.96408 43.1296 3.36095 43.1929ZM47.243 43.1999C45.8227 43.1999 41.4 43.3686 41.4 46.7999V49.0218C41.4 50.5968 42.7852 51.8835 45.7875 52.1999C46.125 52.221 46.4625 52.2491 46.8 52.2491C46.8 52.2491 50.3016 52.1788 50.4 52.1999C52.425 52.1999 52.2 53.7749 52.2 53.9999V55.7999C52.2 56.046 52.1438 57.5999 50.3789 57.5999H41.4V59.3999H50.4141C51.5953 59.3999 52.7414 59.1538 53.6555 58.7249C55.1742 58.0288 55.8 57.0866 55.8 55.8491V53.2757C55.8 50.5124 52.3688 50.3999 50.4 50.3999H46.8C45.3867 50.3999 45.1688 49.5421 45 48.5999V46.7999C45.1688 46.0827 45.4852 45.1124 46.7367 44.9999H55.8V43.1999H47.243ZM61.1649 43.1999C58.507 43.5655 57.5719 44.8874 57.5719 46.7999V55.7999C57.5719 57.5507 58.5492 58.6054 60.5602 59.1538C61.2352 59.3436 61.8469 59.421 62.4235 59.421L66.4313 59.3999H68.7867L70.7906 61.1999H74.8406L72.0563 58.6897C73.3641 58.1483 73.7719 57.3186 73.7719 55.7647V46.7999C73.7719 44.8874 72.5274 43.5655 69.8695 43.1999H61.1649ZM75.6 43.1999V55.7225C75.6 57.8952 76.8305 59.1186 80.086 59.3647C80.3883 59.3788 80.6977 59.3999 81 59.3999H90V57.5999H81.682C79.8258 57.5999 79.2 56.8194 79.2 55.7085V43.1999H75.6ZM63.3094 44.9999H67.943C69.1664 44.9999 69.9891 45.9843 70.1719 46.7999C70.1719 46.7999 70.2 55.1811 70.2 55.7999C70.2 56.4186 69.8555 56.6999 69.8555 56.6999L68.8781 55.7999H64.8L66.8039 57.5999H63.3094C62.0578 57.5999 61.3547 56.6718 61.1719 55.7999V46.9827C61.1719 46.0264 61.9031 44.9999 63.3094 44.9999ZM25.2 48.5999C25.2703 48.6702 25.2 56.271 25.2 56.4186C25.2281 57.9936 27.225 59.3718 30.3539 59.3999H36V59.5194C36 59.8569 36.2461 60.9819 34.2 61.1999C34.1789 61.1999 25.2211 61.1999 25.2 61.1999V62.9999H34.5867C36.1758 62.9507 39.6211 62.5921 39.6 59.8358C39.6 59.7866 39.6141 48.5999 39.6 48.5999H36V57.5999C35.9438 57.5999 31.5422 57.6139 30.6563 57.5999C28.9195 57.5718 28.7719 56.5804 28.8 56.2007V48.5999H25.2Z" fill="black"/>
</g>
<defs>
<clipPath id="clip0_101_20">
<rect width="90" height="90" fill="white"/>
</clipPath>
</defs>
</svg>
