<svg width="90" height="90" viewBox="0 0 90 90" fill="none" xmlns="http://www.w3.org/2000/svg">
<path d="M44.9835 8.4375C43.957 8.4375 42.9306 8.68931 42.0447 9.19556L14.1724 25.285C12.3724 26.3257 11.25 28.2959 11.25 30.3772V59.5679C11.25 61.6772 12.3724 63.6194 14.1724 64.66L21.4893 68.8788C25.033 70.6225 26.2967 70.6201 27.8998 70.6201C33.1592 70.6201 36.167 67.4424 36.167 61.9299V31.8109C36.167 31.3609 35.804 30.9924 35.354 30.9924H31.8384C31.3603 30.9924 31.0199 31.3609 31.0199 31.8109V61.9025C31.0199 64.3775 28.4636 66.7956 24.3292 64.7424L16.6772 60.3259C16.396 60.1853 16.2268 59.8772 16.2268 59.5679V30.4047C16.2268 30.0672 16.396 29.7824 16.6772 29.6136L44.5496 13.5297C44.8027 13.3609 45.1417 13.3609 45.423 13.5297L73.2953 29.6136C73.5765 29.7824 73.7457 30.0678 73.7457 30.3772V59.5679C73.7457 59.8772 73.5759 60.1853 73.3228 60.3259L45.423 76.4429C45.1698 76.5835 44.8027 76.5835 44.5496 76.4429L37.3755 72.1967C37.1786 72.056 36.9022 72.0292 36.7053 72.1417C34.7084 73.2667 34.3428 73.4065 32.4866 74.0533C32.0366 74.194 31.333 74.4743 32.7393 75.2618L42.0447 80.777C42.9447 81.2832 43.96 81.5625 44.9725 81.5625C46.0132 81.5625 47.0224 81.2832 47.9224 80.777L75.8276 64.66C77.6276 63.6194 78.75 61.6772 78.75 59.5679V30.4047C78.75 28.2953 77.6276 26.3531 75.8276 25.3125L47.9224 9.19556C47.0364 8.68931 46.0101 8.4375 44.9835 8.4375ZM52.4817 30.954C44.5223 30.954 39.7705 34.3268 39.7705 39.9518C39.7705 46.0549 44.4911 47.7398 52.1411 48.4991C61.2817 49.3991 61.9849 50.7531 61.9849 52.5531C61.9849 55.6469 59.4859 56.9696 53.6078 56.9696C46.2109 56.9696 44.5786 55.1107 44.0442 51.4545C43.9879 51.0607 43.6524 50.7788 43.2587 50.7788H39.6277C39.1777 50.7788 38.8422 51.1479 38.8422 51.5698C38.8422 56.2667 41.4015 61.8585 53.6078 61.8585C62.439 61.8585 67.5 58.3754 67.5 52.3004C67.5 46.2817 63.4212 44.6755 54.8712 43.5223C46.1806 42.3973 45.3076 41.8065 45.3076 39.7815C45.3076 38.094 46.0692 35.8759 52.4817 35.8759C58.1911 35.8759 60.3275 37.1094 61.1993 40.9625C61.2837 41.3281 61.5911 41.6107 61.9849 41.6107H65.6158C65.8408 41.6107 66.0349 41.4993 66.2036 41.3306C66.3442 41.1899 66.4295 40.963 66.4014 40.7098C65.8389 34.0723 61.4254 30.954 52.4817 30.954Z" fill="black"/>
</svg>
