<svg width="90" height="90" viewBox="0 0 90 90" fill="none" xmlns="http://www.w3.org/2000/svg">
<path d="M70.675 1.82915C70.3203 1.88945 69.9882 2.08403 69.7632 2.40044L68.1345 4.69658C67.6845 5.3308 67.834 6.20764 68.4668 6.65764C68.7143 6.83342 68.9985 6.91857 69.2798 6.91857C69.7199 6.91857 70.1522 6.71062 70.4279 6.32531L72.0566 4.03191C72.5066 3.39769 72.3598 2.52085 71.727 2.07085C71.4092 1.84515 71.0298 1.76886 70.675 1.82915ZM28.9352 7.28112C27.125 7.22555 25.4159 7.59055 23.9062 8.46215C21.4908 9.85671 19.9403 12.3471 19.1602 15.3918C18.38 18.4365 18.3133 22.0905 18.8525 26.1749C19.0293 27.5136 19.2952 28.9143 19.6024 30.3387C18.2167 30.7845 16.8719 31.2511 15.6253 31.7669C11.8186 33.3421 8.68744 35.2269 6.44073 37.4249C4.19403 39.6228 2.8125 42.2108 2.8125 44.9999C2.8125 47.789 4.19403 50.377 6.44073 52.575C8.68744 54.773 11.8186 56.6578 15.6253 58.233C16.8719 58.7488 18.2167 59.2154 19.6024 59.6612C19.2952 61.0855 19.0293 62.4835 18.8525 63.8223C18.3133 67.9066 18.38 71.5606 19.1602 74.6053C19.9403 77.65 21.4908 80.1404 23.9062 81.535C26.3217 82.9295 29.2537 83.0271 32.2806 82.1804C35.3074 81.3337 38.5052 79.5644 41.7728 77.0553C42.8434 76.2332 43.9205 75.3029 45 74.3252C46.0791 75.3024 47.1571 76.2335 48.2272 77.0553C51.4948 79.5644 54.6926 81.3337 57.7194 82.1804C60.7463 83.0271 63.6783 82.9295 66.0938 81.535C68.5092 80.1404 70.0597 77.65 70.8398 74.6053C71.62 71.5606 71.6867 67.9066 71.1475 63.8223C70.971 62.4853 70.7042 61.0863 70.3976 59.6639C71.7836 59.218 73.1279 58.7489 74.3747 58.233C78.1814 56.6578 81.3126 54.773 83.5593 52.575C85.806 50.377 87.1875 47.789 87.1875 44.9999C87.1875 42.2108 85.806 39.6228 83.5593 37.4249C81.3126 35.2269 78.1814 33.3421 74.3747 31.7669C73.1279 31.251 71.7836 30.7818 70.3976 30.3359C70.7043 28.9133 70.9709 27.5148 71.1475 26.1776C71.6867 22.0933 71.62 18.4392 70.8398 15.3945C70.0597 12.3498 68.5092 9.85945 66.0938 8.46489C63.6783 7.07034 60.7463 6.97274 57.7194 7.81945C54.6926 8.66615 51.4948 10.4354 48.2272 12.9446C47.1571 13.7663 46.0791 14.6974 45 15.6747C43.9205 14.6969 42.8434 13.7639 41.7728 12.9418C38.5052 10.4327 35.3074 8.66341 32.2806 7.8167C31.1455 7.49919 30.0214 7.31446 28.9352 7.28112ZM75.8002 7.60796C75.6183 7.62303 75.4361 7.67452 75.2646 7.76452L72.7734 9.06914C72.0858 9.43055 71.8188 10.2835 72.1802 10.9698C72.4319 11.4507 72.9209 11.7223 73.4271 11.7223C73.6465 11.7223 73.8699 11.6713 74.0781 11.563L76.5692 10.2557C77.2569 9.89426 77.5239 9.04403 77.1625 8.35778C76.8914 7.84098 76.3459 7.56274 75.8002 7.60796ZM28.8693 10.0854C29.6874 10.1142 30.5724 10.2618 31.5225 10.5276C34.0561 11.2363 36.9891 12.8196 40.0562 15.1748C41.008 15.9057 41.9776 16.7349 42.9483 17.6083C40.166 20.3707 37.4061 23.6251 34.7607 27.2652C30.2857 27.7361 26.0884 28.5002 22.305 29.5284C22.0339 28.2507 21.8002 26.9969 21.6431 25.8068C21.1369 21.973 21.2317 18.6407 21.8848 16.0922C22.5378 13.5436 23.6923 11.8338 25.3125 10.8984C26.3251 10.3137 27.5059 10.0374 28.8693 10.0854ZM61.1279 10.0881C62.4914 10.0401 63.6749 10.3165 64.6875 10.9011C66.3077 11.8365 67.4622 13.5436 68.1152 16.0922C68.7683 18.6407 68.8603 21.9758 68.3542 25.8096C68.1971 26.9995 67.9661 28.2509 67.695 29.5284C63.9116 28.5002 59.7143 27.7361 55.2393 27.2652C52.5941 23.6251 49.8338 20.3736 47.0517 17.611C48.0224 16.7377 48.9893 15.9084 49.9411 15.1775C53.0082 12.8223 55.9411 11.2363 58.4747 10.5276C59.4248 10.2618 60.3099 10.1169 61.1279 10.0881ZM77.937 14.7793L75.1547 15.1968C74.3869 15.3121 73.8584 16.0302 73.9737 16.798C74.0792 17.4969 74.6786 17.9955 75.3635 17.9955C75.4324 17.9955 75.5005 17.9889 75.5722 17.9791L78.3545 17.5616C79.1223 17.4463 79.6536 16.7309 79.5383 15.9631C79.423 15.1967 78.7076 14.678 77.937 14.7793ZM45 19.5419C47.1775 21.7004 49.3635 24.1858 51.4957 26.9494C49.3733 26.8112 47.2154 26.7187 45 26.7187C42.7836 26.7187 40.6248 26.8111 38.5016 26.9494C40.6342 24.1851 42.822 21.7008 45 19.5419ZM75.7013 21.9451C74.9293 21.9015 74.259 22.4914 74.2154 23.2662C74.169 24.0425 74.763 24.7085 75.5392 24.7521L78.3463 24.9142C78.3744 24.9156 78.4005 24.9169 78.4286 24.9169C79.1669 24.9169 79.7858 24.337 79.8294 23.5903C79.8758 22.8141 79.2846 22.1508 78.5083 22.1072L75.7013 21.9451ZM45 29.5312C47.991 29.5312 50.8968 29.6779 53.6984 29.9349C55.3216 32.2323 56.8998 34.6757 58.3951 37.2656C59.8909 39.8565 61.2185 42.4445 62.3969 44.9999C61.2185 47.5553 59.8909 50.1434 58.3951 52.7343C56.8998 55.3242 55.3216 57.7675 53.6984 60.0649C50.8968 60.322 47.991 60.4687 45 60.4687C42.009 60.4687 39.1032 60.322 36.3016 60.0649C34.6777 57.7667 33.0981 55.3252 31.6022 52.7343C30.1063 50.1434 28.7815 47.5526 27.6031 44.9972C28.7809 42.4436 30.1074 39.8546 31.6022 37.2656C33.0981 34.6746 34.6777 32.2332 36.3016 29.9349C39.1032 29.6779 42.009 29.5312 45 29.5312ZM32.6157 30.3469C31.4343 32.1165 30.2741 33.9399 29.166 35.8593C28.0586 37.7773 27.0612 39.6932 26.12 41.5997C24.7926 38.3712 23.7338 35.2375 22.9532 32.2723C25.9117 31.4656 29.1557 30.8117 32.6157 30.3469ZM57.3816 30.3469C60.8426 30.8117 64.0875 31.4654 67.0468 32.2723C66.2662 35.2376 65.2074 38.3739 63.88 41.6024C62.9381 39.6945 61.9395 37.7788 60.8313 35.8593C59.7235 33.9406 58.5625 32.1159 57.3816 30.3469ZM20.2533 33.0825C21.2547 36.8732 22.6916 40.889 24.5215 44.9999C22.6915 49.111 21.2547 53.1266 20.2533 56.9174C19.0117 56.5134 17.8108 56.0908 16.702 55.632C13.1287 54.1534 10.2879 52.4043 8.40729 50.5645C6.52671 48.7247 5.625 46.8707 5.625 44.9999C5.625 43.1291 6.52671 41.2752 8.40729 39.4354C10.2879 37.5955 13.1287 35.8465 16.702 34.3679C17.8108 33.9091 19.0117 33.4865 20.2533 33.0825ZM69.744 33.0825C70.9865 33.4867 72.1885 33.9088 73.298 34.3679C76.8713 35.8465 79.7121 37.5955 81.5927 39.4354C83.4733 41.2752 84.375 43.1291 84.375 44.9999C84.375 46.8707 83.4733 48.7247 81.5927 50.5645C79.7121 52.4043 76.8713 54.1534 73.298 55.632C72.1892 56.0908 70.9883 56.5134 69.7467 56.9174C68.7455 53.1264 67.3057 49.1112 65.4758 44.9999C67.3052 40.8897 68.7427 36.8726 69.744 33.0825ZM45 35.1562C39.5801 35.1562 35.1562 39.58 35.1562 44.9999C35.1562 50.4198 39.5801 54.8437 45 54.8437C50.4199 54.8437 54.8438 50.4198 54.8438 44.9999C54.8438 39.58 50.4199 35.1562 45 35.1562ZM45 37.9687C48.8999 37.9687 52.0312 41.1 52.0312 44.9999C52.0312 48.8998 48.8999 52.0312 45 52.0312C41.1001 52.0312 37.9688 48.8998 37.9688 44.9999C37.9688 41.1 41.1001 37.9687 45 37.9687ZM63.88 48.3975C65.2074 51.626 66.2662 54.7623 67.0468 57.7276C64.0875 58.5345 60.8426 59.1882 57.3816 59.6529C58.5625 57.884 59.7235 56.0592 60.8313 54.1406C61.9395 52.2211 62.9381 50.3054 63.88 48.3975ZM26.12 48.4002C27.0611 50.3063 28.0588 52.2229 29.166 54.1406C30.2741 56.0599 31.4343 57.8834 32.6157 59.6529C29.1557 59.1882 25.9117 58.5343 22.9532 57.7276C23.7338 54.7624 24.7926 51.6287 26.12 48.4002ZM22.305 60.4714C26.0884 61.4996 30.2857 62.2638 34.7607 62.7346C37.4061 66.3748 40.166 69.6292 42.9483 72.3916C41.9776 73.265 41.008 74.0914 40.0562 74.8223C36.9891 77.1775 34.0561 78.7635 31.5225 79.4723C28.9889 80.181 26.9326 80.0369 25.3125 79.1015C23.6924 78.1661 22.535 76.4562 21.882 73.9077C21.229 71.3592 21.1369 68.0241 21.6431 64.1903C21.8002 63.0002 22.0339 61.7491 22.305 60.4714ZM67.695 60.4714C67.9661 61.749 68.1971 63.0003 68.3542 64.1903C68.8603 68.0241 68.7683 71.3592 68.1152 73.9077C67.4622 76.4562 66.3077 78.1634 64.6875 79.0987C63.0673 80.0341 61.0111 80.181 58.4775 79.4723C55.9439 78.7635 53.0082 77.1775 49.9411 74.8223C48.9892 74.0914 48.0224 73.2622 47.0517 72.3888C49.8338 69.6263 52.5941 66.3748 55.2393 62.7346C59.7143 62.2638 63.9116 61.4996 67.695 60.4714ZM12.1097 61.4767C11.3348 61.3726 10.6316 61.9145 10.5304 62.6852C10.4263 63.4558 10.9683 64.1618 11.7389 64.2645L14.5267 64.6352C14.59 64.6437 14.6516 64.649 14.7134 64.649C15.4081 64.649 16.0131 64.1327 16.106 63.4268C16.21 62.6561 15.6681 61.9501 14.8975 61.8475L12.1097 61.4767ZM38.5016 63.0505C40.6248 63.1887 42.7836 63.2812 45 63.2812C47.2154 63.2812 49.3733 63.1886 51.4957 63.0505C49.3635 65.8141 47.1776 68.2994 45 70.458C42.822 68.2991 40.6342 65.8146 38.5016 63.0505ZM14.2877 68.6507L11.478 68.7469C10.7003 68.7722 10.0917 69.4208 10.1184 70.1971C10.1437 70.9579 10.7682 71.5566 11.5219 71.5566C11.5388 71.5566 11.5573 71.558 11.5714 71.5566L14.3811 71.4605C15.1588 71.4352 15.7674 70.7866 15.7407 70.0103C15.7153 69.2327 15.0626 68.5987 14.2877 68.6507ZM15.5045 75.2508C15.3226 75.2322 15.136 75.2501 14.9496 75.3085L12.258 76.1297C11.5155 76.3561 11.0978 77.1423 11.3242 77.8848C11.5084 78.4909 12.0667 78.8818 12.67 78.8818C12.805 78.8818 12.9414 78.8608 13.0792 78.8186L15.7709 77.9974C16.5134 77.771 16.9325 76.9848 16.7047 76.2423C16.536 75.6854 16.0501 75.3065 15.5045 75.2508ZM18.4845 80.9335C18.1257 80.9066 17.7567 81.0141 17.4628 81.2658L15.3287 83.1005C14.7395 83.6054 14.6728 84.4943 15.1776 85.0835C15.456 85.4084 15.8509 85.5724 16.246 85.5724C16.5709 85.5724 16.8963 85.4597 17.1606 85.2319L19.2947 83.3999C19.884 82.8951 19.9506 82.0061 19.4458 81.4169C19.192 81.1223 18.8433 80.9604 18.4845 80.9335Z" fill="black"/>
</svg>
