<svg width="90" height="90" viewBox="0 0 90 90" fill="none" xmlns="http://www.w3.org/2000/svg">
<g clip-path="url(#clip0_101_24)">
<path d="M45.1082 0C20.3636 0 0.216339 20.1472 0.216339 44.8918C0.216339 69.6364 20.3636 89.7837 45.1082 89.7837C69.8528 89.7837 90 69.6364 90 44.8918C90 20.1472 69.8528 0 45.1082 0ZM45.1082 2.05529C68.7169 2.05529 87.9447 21.2831 87.9447 44.8918C87.9447 68.5006 68.7169 87.7284 45.1082 87.7284C21.4994 87.7284 2.27163 68.5006 2.27163 44.8918C2.27163 21.2831 21.4994 2.05529 45.1082 2.05529ZM45.1082 6.38221C31.6541 6.38221 19.8633 13.2377 12.9808 23.6899C13.8867 23.7169 14.7386 23.7981 15.4687 23.7981C19.4982 23.7981 25.7452 23.2572 25.7452 23.2572C27.814 23.1355 28.0303 26.259 25.9615 26.5024C25.9615 26.5024 23.8386 26.7052 21.5264 26.8269L35.5889 68.4736L44.0264 43.2692L37.9687 26.8269C35.8999 26.7052 33.9663 26.5024 33.9663 26.5024C31.884 26.3807 32.1139 23.1355 34.1827 23.2572C34.1827 23.2572 40.5649 23.7981 44.351 23.7981C48.3804 23.7981 54.6274 23.2572 54.6274 23.2572C56.7097 23.1355 56.9126 26.259 54.8437 26.5024C54.8437 26.5024 52.7208 26.7052 50.4086 26.8269L64.363 68.149L68.149 55.3846C70.0961 50.3816 71.0697 46.244 71.0697 42.9447C71.0697 38.1851 69.4065 34.8993 67.9327 32.3438C65.9856 29.1662 64.1466 26.4348 64.1466 23.2572C64.1466 19.7281 66.851 16.4423 70.637 16.4423C70.8128 16.4423 71.0021 16.4288 71.1779 16.4423C64.3224 10.1683 55.1277 6.38221 45.1082 6.38221ZM78.8582 26.3942C79.034 27.6247 79.1827 28.9769 79.1827 30.3966C79.1827 34.3044 78.4525 38.6448 76.262 44.1346L64.4711 78.101C75.9105 71.4213 83.6178 59.0895 83.6178 44.8918C83.6178 38.1986 81.86 31.8705 78.8582 26.3942ZM9.95192 29.2067C7.8155 33.9934 6.59855 39.3074 6.59855 44.8918C6.59855 60.1307 15.4958 73.2602 28.3413 79.5072L9.95192 29.2067ZM45.7572 48.2452L34.2909 81.7788C37.7389 82.793 41.3221 83.4014 45.1082 83.4014C49.5838 83.4014 53.8702 82.5361 57.8726 81.1298C57.7779 80.9676 57.7374 80.8864 57.6562 80.6971L45.7572 48.2452Z" fill="black"/>
</g>
<defs>
<clipPath id="clip0_101_24">
<rect width="90" height="90" fill="white"/>
</clipPath>
</defs>
</svg>
